<svg xmlns="http://www.w3.org/2000/svg" viewBox="0 0 48 48" fill="none" aria-hidden="true">
  <defs>
    <linearGradient id="make-grad" x1="4" y1="4" x2="44" y2="44" gradientUnits="userSpaceOnUse">
      <stop offset="0%" stop-color="#FF00FF" />
      <stop offset="45%" stop-color="#B02DE9" />
      <stop offset="100%" stop-color="#6D00CC" />
    </linearGradient>
  </defs>
  <g stroke="url(#make-grad)" stroke-width="5" stroke-linecap="round" stroke-linejoin="round">
    <path d="M17 17h14M17 31h14M17 17v14M31 17v14" />
    <path d="M5 24a7 7 0 0 1 7-7h5M5 24a7 7 0 0 0 7 7h5" />
    <path d="M43 24a7 7 0 0 0-7-7h-5M43 24a7 7 0 0 1-7 7h-5" />
    <path d="M24 5a7 7 0 0 0-7 7v5M24 5a7 7 0 0 1 7 7v5" />
    <path d="M24 43a7 7 0 0 1-7-7v-5M24 43a7 7 0 0 0 7-7v-5" />
  </g>
</svg>
